<?xml version="1.0" encoding="utf-8"?>
<svg width="578.0003px" height="986px" viewBox="0 0 578.0003 986" version="1.1" xmlns:xlink="http://www.w3.org/1999/xlink" xmlns="http://www.w3.org/2000/svg">
  <path d="M113.011 420.587C113.099 419.485 113.762 418.957 114.998 419.003C115.03 419.88 114.773 420.469 114.226 420.768C114.296 421.529 114.364 422.266 114.423 422.921C116.754 420.592 118.962 418.387 121.658 415.693C121.653 415.798 121.649 415.865 121.649 415.865C121.649 415.865 121.652 415.814 121.659 415.693L121.658 415.693C121.665 415.557 121.676 415.356 121.686 415.154C122.672 414.087 124.154 413.169 124.554 411.907C125.399 409.244 127.232 407.071 127.897 404.43C130.109 401.857 133.084 400.009 134.295 396.617C134.546 395.917 135.287 394.899 136.535 394.97C136.949 394.994 137.749 394.663 137.751 394.488C137.771 392.516 139.639 391.758 140.355 390.338C141.226 388.611 142.457 387.223 143.473 385.667C144.358 384.31 144.888 382.746 146.198 381.611C147.505 380.479 148.668 379.181 149.915 377.936L149.915 373.533C151.631 372.13 151.396 369.388 153.574 368.339C154.249 365.909 156.143 364.392 157.753 362.63C159.197 361.05 160.946 359.817 161.939 357.698C162.833 355.794 164.654 354.324 166.239 352.457L166.239 349.536C167.455 348.699 168.778 347.789 170.564 346.56L170.564 341.053C171.33 340.186 171.807 339.645 172.239 339.156L172.239 335.104C172.547 334.7 172.971 334.14 173.559 333.367C173.658 332.462 173.784 331.292 173.903 330.204C174.854 329.253 175.73 328.378 176.553 327.556C175.994 326.567 175.444 325.596 174.691 324.264C176.519 323.916 177.877 323.658 179.253 323.397C180.256 322.088 179.504 321.201 178.543 320.325C177.839 319.682 177.192 318.977 176.642 318.421C176.787 317.663 176.875 317.205 177.002 316.543C177.603 316.42 178.281 316.281 179.097 316.113C179.917 315.273 179.833 314.257 179.738 313.107C179.68 312.4 179.618 311.644 179.758 310.847C180.606 310.179 181.762 309.269 182.652 308.568L182.652 305.153C183.166 304.599 183.664 304.063 184.383 303.288C183.486 301.523 182.55 299.685 181.348 297.322C182.295 296.909 183.638 296.323 184.099 296.121L184.099 284.44C185.13 283.36 186.138 282.3 187.163 281.227L187.163 276.849C187.566 276.444 187.917 276.095 188.318 275.693C188.177 275.376 188.101 274.963 187.86 274.707C186.893 273.679 185.875 272.7 184.878 271.703C184.544 272.036 184.222 272.207 184.217 272.387C184.185 273.515 184.189 274.644 184.192 275.757C184.193 276.1 184.194 276.443 184.194 276.783C182.958 277.526 181.694 278.125 180.628 278.972C179.473 279.891 178.503 281.043 177.176 282.368C176.269 281.212 175.363 280.056 174.669 279.172C173.541 279.046 172.705 279.631 171.927 280.174C171.037 280.797 170.224 281.365 169.139 280.748C166.309 283.575 163.531 286.35 160.73 289.149C160.844 289.276 161.31 289.801 161.776 290.327C160.898 291.203 160.022 292.078 159.001 293.097L159.001 297.872C158.038 298.514 156.81 299.331 155.938 299.911L155.938 304.68C154.866 306.524 153.934 308.128 152.874 309.952L152.874 314.073C152.029 314.964 151.059 314.862 150.115 314.763C149.393 314.687 148.686 314.613 148.063 314.987C147.34 314.344 146.799 313.863 146.197 313.328L142.988 313.328C142.21 314.483 141.31 315.818 140.088 317.632C139.026 317.69 137.359 317.78 135.692 317.869C135.342 318.22 134.992 318.569 134.379 319.181L126.944 319.181C126.331 319.793 125.981 320.144 125.62 320.505C124.622 320.414 124.63 319.816 124.639 319.199C124.643 318.911 124.647 318.62 124.549 318.373C123.615 317.517 122.537 317.618 121.425 317.722C120.804 317.781 120.173 317.84 119.551 317.734C119.077 317.309 118.538 316.826 117.944 316.294L112.118 316.294C111.554 315.774 111.016 315.278 110.459 314.765L106.091 314.765C105.513 314.24 104.974 313.751 104.405 313.235L100.059 313.235L95.7642 308.945C95.481 309.24 95.1506 309.505 94.9363 309.845C94.8782 309.936 94.895 310.071 94.9119 310.208C94.9278 310.337 94.944 310.467 94.9003 310.568C94.7202 310.99 94.4493 311.372 94.2043 311.791L91.2369 311.791C90.199 310.804 89.1385 309.798 88.1314 308.841L85.7829 308.841C84.7974 309.387 83.7967 309.943 82.7536 310.522C82.071 309.979 81.517 309.537 80.7726 308.945L72.4191 308.945C70.572 307.899 68.9615 306.986 67.3193 306.055C66.7396 306.495 66.0117 307.048 65.4103 307.506C64.6793 307.163 64.1819 307.055 63.8648 306.756C62.6025 305.568 61.3968 304.322 60.0717 302.997L57.409 302.997C57.2048 302.841 56.998 302.69 56.7936 302.54C55.3508 301.483 54.0275 300.514 54.5939 298.53C54.0428 298.461 53.5351 298.448 53.0606 298.436C51.8669 298.406 50.8838 298.382 49.9503 297.484C49.0225 296.591 47.4966 296.343 46.3094 295.552C45.9393 295.305 45.4518 295.337 44.9393 295.37C44.2345 295.415 43.4826 295.463 42.924 294.795C43.8877 293.602 44.1183 293.098 44.3531 291.564C43.517 291.274 42.6542 290.976 41.7914 290.676C41.325 288.094 39.2955 286.691 37.7366 285.242C36.8563 285.006 36.1911 284.827 35.5106 284.644C36.4969 282.901 37.3917 281.321 38.3904 279.556L38.3904 276.924C37.8622 276.339 37.3752 275.801 36.6843 275.036C37.0756 274.276 37.4957 273.463 38.3709 271.764L38.3709 268.019C39.2416 267.154 40.1155 267.219 40.9349 267.279C41.3396 267.309 41.7305 267.338 42.1013 267.254C42.6346 267.738 43.1536 268.208 43.8342 268.827C44.0761 268.031 44.2759 267.373 44.4705 266.734C43.9052 266.111 43.4161 265.573 42.8715 264.975C44.0978 263.815 45.3457 262.635 46.6245 261.426C47.0611 261.822 47.5811 262.294 48.101 262.765C48.4439 262.423 48.7939 262.073 49.1451 261.725C51.6862 261.33 54.075 260.527 56.2434 259.091L56.2434 257.627C57.1166 257.235 57.5733 257.03 58.0045 257.074C58.4772 257.122 58.9193 257.471 59.8461 258.201C60.1334 257.926 60.6657 257.656 60.6771 257.367C60.735 255.859 60.7269 254.348 60.7201 253.095C60.7181 252.723 60.7162 252.375 60.7162 252.055C62.1896 250.382 63.3264 249.09 64.3941 247.876L71.9269 247.876C72.8608 246.944 73.736 246.068 74.7348 245.071C75.2187 245.464 75.716 245.867 76.3235 246.361C77.3047 245.427 78.3303 244.452 79.3743 243.458L82.2964 243.458L85.2062 240.552L90.1011 240.552C90.2824 239.655 90.4203 238.977 90.5892 238.144C91.7187 237.006 94.1641 237.338 94.7387 235.122C94.7059 235.092 94.6729 235.063 94.6401 235.032C93.7665 234.237 92.8841 233.433 93.8336 231.846C94.3412 231.761 95.0167 231.649 95.8301 231.516C96.1585 232.456 96.4603 233.318 96.7619 234.179C101.504 231.889 101.504 231.889 103.011 228.671C103.542 229.143 104.058 229.602 104.614 230.095L109.357 230.095L110.283 225.406L111.83 226.95L115.177 226.95C115.492 226.635 115.842 226.286 116.335 225.794L120.894 225.794C121.159 226.007 121.712 226.452 122.276 226.906C123.175 226.404 124.126 225.872 125.734 224.975C126.038 224.363 126.709 223.015 127.372 221.68C126.988 221.297 126.638 220.946 126.215 220.524L126.215 217.473C128.136 216.87 129.765 215.564 131.147 213.938L134.512 213.938C135.742 215.329 134.952 216.061 134.29 216.676C134.014 216.932 133.759 217.168 133.684 217.422L133.684 220.865C134.424 221.018 135.101 221.158 135.625 221.266C137.49 219.393 139.233 217.643 140.989 215.879L140.989 213.216C140.331 212.298 139.794 211.548 139.308 210.869C140.34 208.759 142.007 207.682 143.38 206.34C144.607 206.527 145.274 205.88 146.055 205.124C146.668 204.53 147.35 203.869 148.427 203.493L152.324 203.493C153.013 202.518 153.865 201.317 154.49 200.433L158.067 200.433C158.553 200.881 159.086 201.372 159.62 201.864C160.845 200.639 162.071 199.414 163.308 198.179L163.308 196.724C163.902 195.904 164.689 195.938 165.471 195.973C165.888 195.991 166.303 196.009 166.686 195.898C167.439 195.679 168.072 195.051 169.023 194.434C169.111 195.491 169.166 196.163 169.236 197.014C168.484 197.202 167.815 197.369 167.049 197.561C166.678 198.294 166.462 198.722 166.485 199.136C166.518 199.713 167.017 200.265 168.214 201.586C170.22 200.772 172.394 200.182 173.639 198.083C172.767 197.212 171.891 196.337 170.768 195.214C172.466 193.73 173.593 191.798 176.155 191.158C177.812 190.745 177.978 188.55 178.797 187.151C179.286 187.109 179.764 187.068 180.403 187.014C181.999 185.307 183.679 183.508 185.576 181.476C185.579 181.415 185.602 180.929 185.627 180.407C186.105 179.896 186.604 179.361 187.117 178.812L187.117 175.871C190.542 174.821 192.521 172.317 193.895 169.206C194.383 169.183 194.869 169.161 195.534 169.13C195.727 168.531 195.938 167.877 196.242 166.939C195.105 166.044 193.948 165.135 193.072 164.445L193.072 162.201C194.398 161.962 195.76 161.718 197.318 161.438C197.565 160.039 197.542 158.618 197.518 157.195L197.518 157.195C197.497 155.955 197.476 154.715 197.635 153.486C199.037 152.086 200.297 150.491 201.881 149.342C203.381 148.253 205.38 147.861 206.435 146.119C206.811 145.084 206.241 144.502 205.672 143.919C205.396 143.637 205.12 143.355 204.952 143.021L204.952 139.034C204.666 138.648 204.25 138.085 203.594 137.199C202.844 135.633 203.793 134.164 204.842 132.54C204.914 132.427 204.988 132.314 205.061 132.199C204.555 131.282 204.003 130.28 203.279 128.964C203.738 128.329 204.279 127.582 204.933 126.679L204.933 123.926C204.456 123.41 203.96 122.872 203.492 122.365L203.492 120.897C203.867 120.521 204.217 120.17 204.773 119.616C205.034 118.356 204.996 117.016 204.958 115.659C204.923 114.422 204.888 113.172 205.078 111.958C205.588 111.351 206.048 110.804 206.445 110.332C206.436 109.52 206.023 108.843 205.607 108.162C204.977 107.131 204.342 106.091 205.11 104.565C205.358 104.276 205.825 103.73 206.381 103.08L206.381 100.163C205.98 99.7245 205.488 99.1876 204.966 98.6158L204.966 95.6929C205.45 95.1715 205.947 94.6356 206.41 94.1368L206.41 77.632C205.566 77.3368 204.705 77.0354 203.788 76.7146C203.836 75.4073 205.096 74.996 205.628 74.2596C206.422 74.0858 207.095 73.9377 207.693 73.807C207.706 73.7261 207.719 73.6455 207.732 73.5654C208.029 71.7501 208.294 70.1305 206.478 68.9938C207.446 67.9572 208.406 66.9327 209.364 65.9084C208.465 65.0116 207.59 64.1364 206.576 63.1244L206.576 54.4585C206.076 53.8424 205.628 53.2911 205.045 52.5732L205.045 48.6003C204.08 46.4766 202.126 46.0466 200.496 45.1683C200.494 43.6842 200.494 42.2002 200.494 40.7407C200.981 40.209 201.456 39.6886 201.81 39.3009C200.93 37.8199 200.026 36.4592 199.303 35.009C199.004 34.4084 199.212 33.5723 198.982 32.9161C198.294 30.962 197.291 29.1222 197.121 26.9891C197.092 26.6136 196.466 26.2845 196.073 25.8917L196.073 21.4868C197.728 20.3894 197.305 17.9293 199.05 16.7826L199.05 7.95105C200.057 7.05774 201.175 7.16125 202.286 7.26404C202.875 7.3186 203.462 7.37292 204.029 7.27844C204.347 7.4425 204.619 7.70288 204.893 7.96533C205.497 8.54358 206.111 9.13147 207.252 8.71838C207.691 7.7865 208.171 6.76941 208.643 5.76868L210.182 5.76868C210.909 5.0426 211.61 4.34326 212.31 3.64282C212.371 2.47144 212.431 1.29993 212.498 0L220.67 0C222.279 1.06348 222.567 2.80981 223.458 4.25061L226.472 4.25061C226.957 5.25854 227.442 6.26648 227.923 7.26611L230.099 7.26611C230.762 7.96655 231.736 8.99402 232.608 9.91443C233.306 9.47424 234.083 8.98474 235.331 8.19897C236.139 9.70056 236.854 11.0272 237.208 11.6844L243.175 11.6844C244.312 12.9279 245.408 14.7935 247.039 15.7089C248.491 16.5244 250.009 17.0983 251.066 18.5043L251.066 21.4178C251.694 22.2499 252.494 22.2023 253.358 22.1509C253.802 22.1245 254.262 22.0972 254.724 22.1871C255.289 22.7147 255.995 23.375 256.948 24.2637L256.948 28.9082C258.416 29.7186 260.044 29.7042 260.794 31.137C261.559 32.5984 263.897 32.0728 264.244 33.2761C264.601 34.5134 265.08 35.4503 265.918 36.3142C265.432 37.2854 266.014 37.8444 266.596 38.4036C267.107 38.8942 267.617 39.385 267.408 40.1545C267.296 40.7334 266.868 41.2094 266.42 41.7061C265.638 42.5737 264.8 43.505 265.496 45.1591C266.729 45.9685 267.963 46.7778 268.832 47.3486L268.832 50.9175C270.042 51.6589 271.159 52.454 272.371 53.0598C273.713 53.7324 273.265 55.1732 273.862 56.1874C274.949 58.0386 275.917 59.9197 277.714 61.3574L277.714 65.5382C278.354 66.4309 278.893 67.1837 279.305 67.7587C279.275 70.0779 276.969 70.4163 276.336 72.5215C276.41 72.7065 276.489 73.5664 276.957 73.9377C278.171 74.9014 277.739 76.5931 278.931 77.67C279.381 78.0764 279.354 79.0095 279.33 79.8395L279.33 79.8402L279.33 79.8408L279.33 79.8423C279.32 80.1876 279.31 80.5144 279.336 80.7781L277.907 82.2056L277.907 86.4233C276.286 87.5011 274.76 88.5153 273.216 89.5437C273.867 90.243 274.363 90.7758 274.929 91.3826C274.81 94.6007 270.876 95.2434 270.263 98.37C269.713 101.173 265.601 100.619 264.434 103.249C264.712 105.163 263.859 106.708 263.006 108.254C262.734 108.746 262.463 109.239 262.228 109.743L262.178 109.848C261.605 111.074 261.578 111.132 261.729 113.767C262.08 114.117 262.43 114.468 262.944 114.98C261.773 116.15 260.784 117.875 259.378 118.342C257.889 118.835 256.869 119.611 255.49 120.927C255.506 121.165 255.505 121.434 255.503 121.721L255.503 121.722C255.5 122.459 255.496 123.315 255.782 124.059C255.896 124.356 256.114 124.61 256.336 124.869C256.725 125.322 257.127 125.788 257 126.525C256.772 127.853 257.209 128.918 258.359 129.663C256.852 130.666 255.368 131.653 254.036 132.54L254.036 141.725C255.021 143.246 256.506 143.945 258.323 144.405L258.323 147.844C257.266 149.04 255.907 147.956 253.352 149.399C253.508 149.328 254.273 150.682 253.696 152.589C253.155 152.982 251.964 153.847 251.073 154.493L251.073 156.715L253.536 157.573C253.699 158.001 253.998 158.427 254.001 158.857C254.028 162.149 254.026 165.44 254.024 168.715L254.024 168.722C254.023 169.626 254.022 170.529 254.022 171.43L255.352 172.758C255.43 173.668 255.532 174.84 255.645 176.15C256.451 176.442 257.311 176.753 258.434 177.159L258.434 186.242C259.281 187.099 260.136 187.057 261.004 187.013C261.461 186.99 261.923 186.967 262.388 187.077C262.651 187.835 262.777 188.82 263.287 189.528C264 190.521 264.998 191.309 265.896 192.207L265.896 198.407C267.117 199.219 268.461 200.113 270.103 201.205C270.111 202.879 271.636 204.736 271.709 206.663C271.75 207.769 272.303 208.568 272.824 209.322C273.441 210.215 274.014 211.044 273.638 212.242C274.713 212.313 275.196 212.345 275.678 212.377C276.379 213.077 277.08 213.777 277.797 214.493L277.797 219.13C278.606 219.403 279.462 219.692 280.529 220.052C280.558 220.228 280.566 220.431 280.576 220.642C280.596 221.126 280.618 221.647 280.886 221.957C282.176 223.452 284.268 224.566 284.886 226.253C285.612 228.236 286.968 229.407 288.212 230.842L288.212 233.797C287.721 234.323 287.222 234.858 286.701 235.417L286.701 238.312C285.266 239.746 283.864 241.146 282.658 242.352C281.895 244.044 281.238 245.502 280.737 246.613C281.723 247.793 282.486 248.706 283.414 249.819C284.39 249.194 285.164 248.698 286.048 248.13C286.725 248.307 286.741 248.85 286.758 249.415C286.768 249.734 286.778 250.06 286.907 250.33C288.773 251.207 290.638 252.084 292.683 253.046C292.683 253.315 292.645 253.628 292.606 253.948C292.518 254.669 292.427 255.425 292.761 255.782C294.091 257.207 293.83 259.521 295.657 260.565C295.656 261.554 295.656 262.545 295.656 263.689C293.364 264.772 292.893 267.356 291.323 269.715L291.323 278.119C290.666 278.839 290.021 279.547 289.436 280.188C288.459 280.702 287.473 280.657 286.499 280.612L286.499 280.612C286.011 280.59 285.527 280.567 285.05 280.616C284.821 280.662 284.516 280.631 284.376 280.768C282.955 282.149 281.561 283.557 280.647 284.47C279.04 285.287 278.016 285.806 276.562 286.545L272.586 286.545C271.93 287.237 271.251 287.954 270.522 288.723C270.406 289.802 270.279 290.972 270.126 292.39L263.58 292.39C262.822 293.609 262.881 294.883 262.941 296.16C262.999 297.423 263.058 298.688 262.328 299.905L257.6 299.905C257.33 300.592 257.162 301.017 256.886 301.718C257.356 302.331 257.919 303.063 258.484 303.797C258.447 304.279 258.41 304.758 258.372 305.244C257.733 306.001 256.942 305.932 256.147 305.862C255.727 305.825 255.305 305.789 254.904 305.874C253.301 307.352 251.814 309.019 250.033 310.266C248.758 311.157 247.087 311.484 245.581 312.068C245.169 312.469 245.134 313.076 245.101 313.655C245.05 314.523 245.004 315.328 243.701 315.286C243.583 315.854 243.61 316.391 243.635 316.892C243.678 317.767 243.716 318.531 242.966 319.147C242.239 318.615 241.517 318.085 241.066 317.754C240.814 317.754 240.603 317.739 240.433 317.727C240.153 317.707 239.984 317.695 239.923 317.77C238.713 319.261 236.807 320.165 235.966 322.389C236.497 323.071 237.063 323.801 237.643 324.548L237.643 331.869C236.39 333.129 235.169 334.358 233.951 335.582C233.444 335.582 232.95 335.582 232.454 335.584C231.754 336.286 231.053 336.986 230.298 337.74C230.751 338.252 231.206 338.766 231.667 339.286C231.359 339.614 231.029 339.964 230.7 340.312C230.542 340.494 230.251 340.677 230.25 340.86C230.229 345.078 230.23 349.297 230.23 353.48C230.23 354.199 230.23 354.917 230.23 355.634C229.825 356.04 229.331 356.328 229.149 356.75C228.428 358.433 229.033 360.507 227.332 361.993C226.995 362.288 227.085 363.069 227.174 363.85C227.216 364.208 227.257 364.567 227.257 364.878L227.257 376.432C226.674 377.013 226.324 377.364 225.711 377.976L225.711 385.402C225.099 386.014 224.749 386.365 224.341 386.772L224.341 392.609C223.823 393.174 223.332 393.71 222.809 394.282L222.809 401.251C221.862 402.983 221.084 404.406 220.307 405.829C220.27 405.808 220.233 405.789 220.195 405.768C220.071 405.965 219.861 406.151 219.839 406.358C219.801 406.707 219.808 407.06 219.816 407.414C219.819 407.557 219.822 407.699 219.822 407.842L219.822 421.307C220.591 421.506 221.258 421.678 221.875 421.838C222.502 421.255 223.036 420.756 223.565 420.264L226.524 420.264C226.884 420.624 227.234 420.975 227.608 421.348C228.396 421.896 229.254 421.799 230.089 421.705C230.402 421.669 230.712 421.634 231.014 421.633C231.562 421.18 232.065 420.762 232.502 420.4C233.177 420.942 233.731 421.386 234.172 421.74C235.387 421.74 235.387 421.74 238.381 418.798L242.742 418.798C245.057 416.512 247.335 414.265 249.603 412.028L249.603 408.863C250.251 408.661 250.908 408.458 251.885 408.153C253.231 406.901 254.605 404.737 256.502 404.084C258.841 403.28 259.901 401.431 261.528 400.074C263.173 398.706 264.288 396.93 265.349 395.008C266.384 393.134 268.386 391.793 269.953 390.227C270.681 388.535 271.403 386.854 272.245 384.896C274.282 383.702 275.401 381.148 278.103 379.994C280.215 379.092 281.903 376.964 283.495 375.133C285.191 373.183 286.552 370.942 288.245 368.568L288.245 366.01C290.194 364.064 292.121 362.137 294.049 360.212C293.922 358.192 295.245 356.879 296.817 356.487C298.46 356.078 299.874 355.048 299.979 353.928C300.096 352.671 300.936 351.878 301.758 351.101C302.687 350.223 303.595 349.365 303.418 347.881C306.729 345.002 307.533 340.657 309.742 337.094L311.39 337.094C312.215 335.284 313.063 333.421 313.966 331.439C314.031 331.393 314.207 331.18 314.417 331.139C314.887 331.049 315.373 331.044 315.851 331.004C317.319 329.677 316.437 328.819 315.53 327.936C315.122 327.538 314.708 327.136 314.502 326.683C317.581 323.935 318.454 319.867 321.974 317.688L324.635 317.688C325.258 317.179 325.759 316.771 326.255 316.365C327 317.04 326.927 317.786 326.859 318.49C326.811 318.982 326.766 319.453 327 319.865C326.355 320.511 325.811 321.02 325.308 321.565C324.668 322.255 323.855 322.767 323.845 323.954C323.839 324.551 323.152 325.141 322.549 326.084L322.549 333.512C321.574 334.196 320.368 335.042 319.486 335.662L319.486 339.184C318.967 339.738 318.468 340.273 317.954 340.822L317.954 343.758C317.597 344.115 317.247 344.465 316.894 344.815C316.369 345.709 316.422 346.66 316.474 347.613C316.502 348.111 316.529 348.609 316.474 349.1C315.105 351.758 313.735 354.416 312.09 357.609L312.09 361.709C311.087 362.498 309.93 363.407 309.028 364.118L309.028 374.958L307.7 376.285C307.49 377.51 307.517 378.828 307.545 380.182L307.545 380.183C307.571 381.429 307.597 382.707 307.44 383.972L304.695 386.714L304.695 391.471C304.735 391.655 304.923 391.815 305.142 392.004C305.679 392.465 306.409 393.091 305.635 394.616C305.623 394.63 305.139 395.169 304.607 395.764L304.607 400.096C304.085 400.66 303.588 401.198 303.076 401.752L303.076 406.159C302.708 406.526 302.358 406.876 301.744 407.488L301.744 413.43L300.275 414.899L300.275 425.635C299.318 426.249 298.076 427.046 297.77 427.244C296.704 429.531 297.538 430.334 298.325 431.093C298.415 431.179 298.504 431.265 298.589 431.352C298.268 431.703 297.948 432.053 297.617 432.414C297.463 432.828 297.169 433.256 297.165 433.687C297.137 436.553 297.139 439.42 297.142 442.246L297.142 442.252C297.143 443.079 297.144 443.902 297.144 444.72C297.694 445.327 298.181 445.866 298.715 446.457C298.613 447.179 298.261 447.85 297.909 448.522C297.276 449.729 296.639 450.943 297.433 452.481C297.715 452.764 298.066 453.114 298.679 453.726L298.679 459.668C299.292 460.28 299.642 460.631 300.048 461.037C299.598 461.547 299.144 462.061 298.649 462.623L298.649 472.951C299.005 473.203 299.351 473.538 299.764 473.713C300.185 473.892 300.673 473.911 301.376 474.048C301.682 475.557 301.646 477.11 301.609 478.67C301.584 479.764 301.558 480.861 301.65 481.949C302.006 482.304 302.357 482.653 302.91 483.207C303.003 484.156 303.117 485.325 303.232 486.5C303.582 486.85 303.932 487.199 304.431 487.698L304.431 493.373C304.928 493.995 305.371 494.549 305.963 495.29L305.963 498.196C305.661 498.548 305.195 499.094 304.638 499.746L304.638 502.663C305.038 503.1 305.528 503.637 306.051 504.21L306.051 507.137C304.886 509.085 302.62 509.546 300.73 510.667C300.383 510.35 299.86 509.872 299.316 509.375L291.929 509.375C291.568 509.014 291.217 508.664 290.819 508.265C285.577 507.761 281.749 504.024 275.577 501.987L274.536 501.987C272.167 500.3 269.948 498.917 267.967 497.253C266.146 495.726 263.403 495.488 262.401 493.067L258.176 493.067C255.799 491.376 253.579 489.995 251.598 488.327C249.757 486.779 247.509 486.213 245.462 485.289C245.266 484.544 245.235 483.782 244.881 483.225C244.358 482.406 243.605 481.734 243.068 481.132L241.233 481.132C240.389 479.267 239.538 477.39 238.603 475.323C237.755 475.279 236.804 475.23 235.455 475.159C233.744 473.194 231.82 470.981 230.38 469.326C228.903 469.258 228.417 469.235 227.753 469.203C227.56 468.604 227.348 467.95 226.992 466.847C225.536 465.508 223.727 463.843 221.654 461.935C221.387 461.931 221.093 461.904 220.778 461.875C219.704 461.777 218.377 461.656 217.006 462.328L217.006 471.465C217.184 471.691 217.62 472.246 218.369 473.198L218.369 481.938C218.982 482.55 219.332 482.899 219.752 483.32L219.752 503.987C220.265 504.56 220.749 505.099 221.282 505.692L221.282 516.024C220.814 516.531 220.318 517.068 219.827 517.6C219.452 518.634 220.01 519.22 220.596 519.836C220.882 520.138 221.176 520.446 221.37 520.818L221.37 527.935C221.878 528.552 222.291 529.053 222.693 529.542C222.232 530.003 221.882 530.353 221.459 530.776L221.459 551.873C221.958 552.372 222.309 552.722 222.722 553.134C222.277 553.644 221.829 554.156 221.332 554.724L221.332 582.874C221.804 583.385 222.3 583.922 223.004 584.685C222.682 585.41 222.31 586.246 221.94 587.082C221.218 588.015 221.264 589.065 221.311 590.125C221.327 590.507 221.344 590.89 221.325 591.27C221.273 592.299 221.286 593.331 221.298 594.369C221.303 594.824 221.309 595.28 221.309 595.736C220.233 597.234 219.79 599.061 218.652 600.598C217.892 601.626 217.832 603.394 219.171 604.54C219.929 605.189 219.876 605.975 219.822 606.771C219.794 607.191 219.765 607.615 219.856 608.023C219.371 608.559 218.884 609.096 218.356 609.68L218.356 614.033C217.839 614.593 217.343 615.13 216.824 615.692L216.824 621.566C216.451 621.939 216.1 622.29 215.748 622.639C215.619 623.081 215.39 623.52 215.379 623.964C215.346 625.216 215.352 626.469 215.357 627.675C215.359 628.12 215.361 628.559 215.361 628.989C215.426 629.049 215.491 629.108 215.555 629.167C216.509 630.039 217.356 630.814 216.594 632.207C215.607 632.843 214.533 632.776 213.409 632.707L213.408 632.707C212.776 632.667 212.129 632.627 211.473 632.711C210.832 633.574 209.755 634.445 209.514 635.507C209.263 636.614 208.55 637.132 207.954 637.848C207.015 638.978 205.355 638.687 204.296 639.888C203.303 641.012 203.761 642.776 202.273 643.549C200.836 644.296 199.453 645.145 197.96 646L184.904 646C182.523 644.942 182.95 642.081 181.127 640.732L181.127 633.393C179.691 631.959 178.29 630.559 176.846 629.116C177.2 627.44 176.452 626.092 175.701 624.738C175.321 624.052 174.939 623.364 174.7 622.631C174.356 621.58 172.613 620.958 172.334 619.918C171.662 617.422 169.941 615.461 169.231 613.016C169.044 612.371 168.44 611.848 167.867 611.042L167.867 607.482C165.768 603.373 163.908 599.731 162.041 596.077C162.36 595.757 162.712 595.407 163.189 594.929L163.189 590.099C163.153 589.928 162.952 589.771 162.712 589.582C162.187 589.17 161.473 588.61 161.892 587.444C162.261 587.027 162.737 586.486 163.279 585.872L163.279 568.094C162.838 567.623 162.339 567.089 161.831 566.546C161.831 551.217 161.831 535.871 161.832 520.525L163.242 519.117C163.4 517.481 163.334 515.514 163.27 513.595C163.264 513.43 163.258 513.266 163.253 513.102C162.768 512.526 162.342 512.02 161.922 511.521C162.362 511.082 162.713 510.733 163.189 510.255L163.189 498.292C162.942 497.992 162.489 497.442 161.914 496.743L161.914 493.833C162.26 493.44 162.737 492.898 163.278 492.284L163.278 462.706C163.795 462.154 164.294 461.619 164.801 461.077L164.801 458.17C164.309 457.628 163.84 457.109 163.373 456.594C163.764 456.203 164.115 455.853 164.727 455.243L164.727 434.445C165.337 433.834 165.688 433.483 166.155 433.016L166.155 423.747C165.16 423.382 164.302 423.067 162.823 422.525C164.305 421.483 165.474 420.661 166.298 420.082L166.298 410.592C166.655 410.235 167.005 409.885 167.357 409.535C167.498 409.098 167.757 408.662 167.758 408.224C167.767 406.011 167.722 403.797 167.653 401.584C167.648 401.403 167.325 401.234 167.265 401.173C164.151 404.284 161.036 407.397 157.449 410.98C157.436 411.216 157.381 412.164 157.349 412.725C155.617 414.439 154.06 415.98 152.934 417.096L152.934 420.827C151.762 423.31 148.632 423.051 147.115 425.382L147.115 431.223C146.503 431.84 145.799 432.481 145.179 433.197C144.724 433.724 144.34 434.323 143.997 434.932C143.543 435.736 143.16 436.58 142.519 437.863L142.519 441.727C138.622 443.733 138.622 443.733 136.323 449.449C134.396 451.375 132.377 453.22 130.576 455.256C129.512 456.459 128.592 457.885 127.981 459.364C127.686 460.076 127.678 460.904 127.669 461.735C127.665 462.138 127.661 462.541 127.624 462.931C127.58 463.396 127.47 463.856 127.353 464.536C126.752 464.658 126.076 464.796 125.256 464.963L121.69 468.525L121.69 471.677C120.88 471.952 120.021 472.245 118.8 472.66C118.75 473.686 118.693 474.854 118.637 476.025C117.59 478.213 114.836 477.971 113.456 479.675C111.153 479.764 110.222 481.123 109.714 483.239C109.618 483.635 109.321 483.962 109.019 484.295C108.521 484.843 108.007 485.409 108.339 486.334C106.03 488.636 103.714 490.874 101.488 493.197C100.525 494.202 100.784 495.91 99.3968 496.809C98.3806 497.469 97.6175 498.518 96.7413 499.393L93.8676 502.263C93.0449 504.052 92.3777 505.503 91.1772 508.114C90.6778 508.584 88.7564 509.7 87.9482 511.358C87.1934 512.906 86.3882 514.236 85.1837 515.405C83.7617 516.784 82.3758 518.2 80.9744 519.601C80.303 519.776 79.6328 519.953 78.841 520.16C78.7061 520.779 78.5589 521.455 78.4044 522.168C76.5089 524.062 74.5814 525.986 72.9062 527.661C72.5777 528.616 72.5499 529.512 72.0937 529.878C70.5328 531.129 71.4719 533.994 68.976 534.598L65.6688 534.598C64.6587 535.697 63.5457 537.021 62.309 538.219C60.92 539.562 59.6083 541.32 57.9146 541.923C56.0869 542.574 55.3929 544.146 53.9947 545.038C52.5051 544.688 51.7425 545.576 50.953 546.494C50.3084 547.244 49.6459 548.015 48.5551 548.15C46.8716 548.358 45.4507 550.375 43.7394 550.719C41.2673 551.215 40.2778 553.228 38.5964 554.51C38.6038 556.976 36.9124 557.748 35.224 558.519C34.7908 558.717 34.3578 558.915 33.9537 559.141C33.3575 559.475 32.7336 559.758 32.1107 560.069C31.4332 559.499 30.8854 559.037 30.2388 558.492C29.6045 559.086 28.927 559.722 28.0981 560.498C28.059 561.322 28.0137 562.279 27.9643 563.306C26.4003 564.727 24.7755 566.204 23.5389 567.328C23.5389 568.568 23.5389 569.062 23.5368 569.556C22.8346 570.256 22.1334 570.957 21.3725 571.717L17.0223 571.717C16.455 572.233 15.9164 572.723 15.3409 573.247L12.4167 573.247C12.08 572.925 11.7247 572.586 11.2841 572.164C10.2509 571.6 9.12048 571.687 7.97577 571.774L7.97424 571.774C7.44482 571.815 6.91235 571.855 6.38501 571.832C6.03497 572.184 5.68488 572.533 5.30182 572.916C3.94934 573.487 2.53943 573.343 1.12811 573.198C0.869812 573.171 0.61145 573.145 0.353394 573.123C0.155151 572.925 0.0286255 572.798 0.00427246 572.655C-0.0386353 572.401 0.235962 572.094 0.994568 571.246L0.994873 571.246C1.38 569.804 1.31921 568.255 1.25635 566.653C1.19708 565.141 1.13593 563.583 1.44586 562.023C3.06854 561.334 2.28601 558.956 3.86444 557.968C5.12268 557.181 5.43262 555.717 6.0885 554.463C6.83911 553.027 8.38873 552.006 9.27008 551.126C10.2618 550.834 10.9617 551.312 11.6348 551.771C12.4601 552.334 13.2451 552.87 14.478 551.926C14.5563 550.479 14.6469 548.814 14.7375 547.149C15.9638 545.924 17.2447 544.747 18.4 543.458C18.6353 543.195 18.9179 542.957 19.2017 542.719C20.0368 542.017 20.8826 541.307 20.5684 539.908C21.8266 538.725 23.0858 537.541 24.3883 536.316C24.7518 536.647 25.2708 537.119 25.7907 537.592C27.0016 536.383 28.2278 535.157 29.4717 533.914L29.4717 532.481C29.9865 531.924 30.4818 531.387 31.0038 530.824L31.0038 526.49C32.2682 525.205 33.4832 523.971 34.6951 522.74C34.858 522.74 35.0353 522.76 35.2111 522.781C35.5899 522.824 35.9615 522.867 36.1654 522.703C37.123 521.928 37.8252 520.787 38.8548 520.167C40.1429 519.39 39.4551 517.825 40.4137 517.071C41.2827 516.388 41.1561 515.354 41.5576 514.574C41.8768 513.953 43.2648 513.974 43.9619 513.433C45.0883 512.559 46.1807 511.541 46.0685 509.684C47.9002 507.855 49.8195 505.937 51.7964 503.962C51.816 503.591 51.8417 503.106 51.8602 502.762C53.7012 500.346 56.5565 498.925 57.7004 496.123C58.7805 493.475 61.6614 492.392 62.8167 490.063C64.2643 487.146 66.5223 485.077 68.6887 482.847C68.7758 482.757 68.8807 482.663 68.9875 482.567C69.2924 482.293 69.6141 482.005 69.5897 481.76C69.4522 480.344 70.3121 479.596 71.1713 478.849C71.7729 478.326 72.3741 477.804 72.6323 477.052C73.1522 475.542 73.596 473.899 74.534 472.664C75.8685 470.905 77.626 469.466 79.2025 467.891C79.6843 467.858 80.1661 467.824 80.648 467.791C81.4861 466.246 81.4861 466.246 81.5325 464.528C81.7766 464.134 81.9454 463.653 82.279 463.361C83.6906 462.123 84.6843 460.497 86.8753 460.047C87.9472 459.826 89.4062 458.448 89.0087 456.611C89.3599 456.205 89.764 455.836 90.1642 455.471C91.3456 454.393 92.4947 453.345 92.1595 451.45L94.1734 451.45C94.9333 448.448 97.5403 446.865 98.7676 445.422C100.18 442.239 101.012 439.802 103.122 438.074L104.591 438.074C105.754 435.818 106.913 433.568 108.287 430.902L108.287 426.855C109.472 425.702 110.569 424.277 111.994 423.356C112.513 423.021 112.584 422.398 112.653 421.797C112.706 421.334 112.758 420.884 113.011 420.587ZM439.667 209.032L439.667 206.376C440.666 205.318 441.667 204.261 442.686 203.185L442.686 200.397C443.243 199.737 443.704 199.192 444.1 198.724C444.1 198.29 444.05 197.831 444.002 197.383C443.898 196.422 443.799 195.507 444.201 194.968C445.429 193.323 445.338 191.454 445.939 189.73C446.458 188.235 447.513 186.928 448.509 185.237L448.509 181.202C450.281 180.105 449.856 177.649 451.488 176.493C451.381 175.627 451.865 174.926 452.348 174.225C452.967 173.327 453.586 172.429 452.966 171.184C454.374 169.671 454.64 167.855 454.459 165.875C454.325 164.412 454.465 163.129 455.692 161.901C456.358 161.235 455.748 159.343 456.391 158.582C457.304 157.502 457.246 156.446 457.461 155.27C457.659 154.187 458.763 153.209 458.788 152.169C458.825 150.593 459.78 149.571 460.234 148.3C461.334 145.221 463.277 142.654 464.715 138.718L464.715 135.377C465.225 134.804 465.704 134.266 466.235 133.671L466.235 129.352C466.753 128.792 467.247 128.257 467.754 127.709L467.754 123.303L468.832 122.222C469.154 121.619 469.188 120.906 469.222 120.19C469.279 119.006 469.335 117.815 470.697 117.106C470.412 115.827 470.938 114.818 471.468 113.802C471.689 113.377 471.912 112.95 472.076 112.502C472.315 111.845 472.244 111.075 472.172 110.303C472.101 109.543 472.029 108.781 472.258 108.125C473.075 105.771 473.884 103.377 475.096 101.152L475.096 87.6257C474.484 87.1218 473.728 86.5001 472.667 85.6259L468.39 85.6259C467.957 86.0568 466.955 86.615 466.66 87.4297C465.633 90.275 464.081 92.323 460.972 93.1552C459.776 93.4753 459.297 95.2915 457.539 95.7112C457.457 93.933 457.381 92.2727 457.306 90.6782C456.803 90.0955 456.335 89.5537 455.669 88.7831C456.095 88.0145 456.538 87.2142 457.408 85.6423L457.408 81.8069C458.016 81.1984 458.364 80.8495 458.794 80.4175L458.794 76.3994C459.845 74.5525 460.757 72.9457 461.83 71.0598C461.83 68.4709 461.83 65.5107 461.829 62.5496C461.482 62.2007 461.134 61.8518 460.784 61.5029C460.639 61.069 460.382 60.637 460.372 60.2008C460.341 58.5697 460.346 56.9385 460.35 55.2561C460.351 54.66 460.353 54.0575 460.353 53.4463C461.246 53.1312 462.132 52.8922 462.947 52.5022C463.365 52.3011 463.655 51.8302 464.025 51.4587L467.126 51.4587C467.945 49.6528 468.788 47.7936 469.673 45.842C470.471 45.4036 471.36 45.4485 472.307 45.4962C472.85 45.5237 473.412 45.552 473.988 45.4911C474.463 45.4093 474.849 45.0867 475.253 44.7494C475.881 44.2239 476.552 43.6631 477.668 43.9243C478.251 44.0613 478.954 43.6843 479.657 43.3076C479.975 43.1371 480.293 42.9666 480.599 42.8439L481.778 44.0259C482.304 44.0259 482.834 44.0261 483.368 44.0264C485.678 44.0275 488.061 44.0287 490.444 44.0095C490.639 44.0084 490.831 43.7714 491.025 43.6442C491.324 42.7854 491.623 41.9265 491.946 41C492.361 41.3728 492.68 41.6595 492.72 41.6957L492.724 41.6996C493.291 42.2184 493.467 42.5206 493.648 42.5227C495.617 42.5482 497.586 42.5466 499.641 42.545C500.148 42.5447 500.66 42.5442 501.179 42.5442C501.466 43.3805 501.763 44.2404 502.06 45.1012C502.95 45.6083 503.894 45.5586 504.844 45.5088C505.343 45.4825 505.845 45.4562 506.341 45.5106C507.793 46.1385 509.095 46.9677 510.86 47.1379C512.327 47.2795 513.639 48.478 515.418 48.6115C516.864 48.7191 518.329 49.9146 519.582 50.8893C520.933 51.939 522.031 53.3108 523.271 54.5093C524.505 55.7015 525.779 56.8518 526.882 57.8778L526.882 61.1284C528.168 61.8759 528.24 63.0215 528.314 64.2151C528.33 64.4731 528.347 64.7335 528.375 64.9927C528.438 65.5558 528.763 66.0223 529.096 66.5004C529.557 67.1616 530.033 67.8445 529.851 68.8352C529.593 70.241 529.898 71.5082 530.962 72.8348C531.468 73.4662 531.426 74.5385 531.381 75.6898C531.36 76.228 531.338 76.7833 531.371 77.3188C531.689 77.6882 532.154 78.23 532.703 78.8702L532.703 81.8899C533.289 82.1074 533.909 82.3127 534.51 82.563C537.235 83.6937 538.027 86.4641 538.488 88.741C538.988 91.2025 540.947 92.6801 541 95.7522C539.976 97.755 538.543 100.558 537.033 103.509C537.431 104.08 537.828 104.646 538.483 105.581L538.483 116.09L537.384 117.192C537.268 118.257 537.139 119.425 536.99 120.792C536.326 120.928 535.652 121.065 534.928 121.212C534.025 124.303 531.297 126.065 529.214 128.354C528.807 128.426 528.38 128.44 527.953 128.455C526.716 128.498 525.474 128.541 524.695 129.95L521.781 129.95C521.23 130.466 520.699 130.964 520.159 131.47C514.762 131.47 509.35 131.47 503.938 131.471C502.826 133.438 502.393 135.9 499.343 136.214C498.394 136.311 497.591 137.839 496.639 138.794L493.943 138.794C493.467 139.169 493.062 139.429 492.729 139.76C489.242 143.242 485.765 146.734 482.287 150.224C480.895 151.621 479.413 152.939 478.139 154.436C477.077 155.686 475.647 156.489 474.989 158.304C474.379 159.991 472.442 161.146 471.365 162.725C469.949 164.801 469.363 167.34 467.814 169.407C467.495 169.832 467.577 170.56 467.661 171.314C467.701 171.668 467.741 172.028 467.741 172.365C465.386 173.816 464.668 176.445 463.344 178.636C462.526 179.987 462.212 181.652 461.365 182.977C460.728 183.973 459.603 184.654 458.844 185.34L458.844 188.589C457.44 189.365 457.396 190.606 457.352 191.845C457.336 192.278 457.321 192.711 457.248 193.123C455.966 193.794 455.94 194.9 455.914 195.999C455.901 196.568 455.888 197.135 455.701 197.639C454.814 198.529 453.944 199.401 453.02 200.328L453.02 203.19C452.506 203.752 452.017 204.287 451.506 204.845C451.458 205.205 451.454 205.568 451.449 205.932C451.437 206.921 451.425 207.916 450.545 208.885C449.529 210.005 448.546 211.796 448.683 213.178C448.823 214.592 448.19 215.58 447.586 216.524C447.337 216.912 447.093 217.293 446.909 217.693C445.868 219.968 445.112 222.669 442.634 223.938L442.634 229.971L441.115 231.614L441.115 234.5C440.738 234.878 440.39 235.227 440.041 235.576C439.585 236.461 439.619 237.389 439.656 238.397C439.677 238.958 439.698 239.545 439.637 240.162C439.374 240.514 438.956 241.073 438.334 241.908L438.334 247.09C437.414 248.73 436.655 250.079 435.894 251.435C435.527 251.066 435.179 250.718 434.783 250.319C434.091 250.2 433.77 250.636 433.449 251.071C433.245 251.349 433.041 251.626 432.741 251.757C432.189 252.76 432.233 253.814 432.278 254.863C432.305 255.5 432.331 256.134 432.225 256.755L429.986 259C429.412 258.229 428.839 257.46 428 256.334L428 244.688C428.504 244.184 428.852 243.835 429.262 243.424L429.262 239.093C429.773 238.528 430.257 237.991 430.781 237.412L430.781 234.549C431.294 233.993 431.787 233.457 432.302 232.898L432.302 230.044C432.828 229.459 433.311 228.923 433.821 228.355L433.821 223.259C436.133 218.242 436.613 213.226 439.667 209.032ZM163.562 203.106L163.522 202.165C163.707 202.139 163.892 202.106 164.077 202.073C164.551 201.989 165.026 201.904 165.494 201.932C165.699 201.944 165.923 202.52 166.024 202.871C166.056 202.982 165.711 203.349 165.548 203.343C164.884 203.318 164.224 203.194 163.562 203.106ZM278.427 240.422C279.652 241.484 279.616 242.474 278.561 243.478L276.754 243.478C276.597 242.726 276.425 241.904 276.21 240.871C277.177 240.675 277.838 240.542 278.427 240.422ZM432.065 249.504C431.895 249.194 431.718 248.872 431.539 248.549C431.488 248.601 431.421 248.656 431.354 248.711C431.207 248.832 431.059 248.953 431.078 249.037C431.156 249.386 431.376 249.702 431.539 250.031C431.704 249.867 431.868 249.702 432.065 249.504ZM429.793 262.665C429.747 262.443 429.7 262.221 429.663 262L428.336 262.048C428.211 262.841 428.037 263.633 428 264.429C427.992 264.624 428.51 265.036 428.667 264.998C429.162 264.877 429.976 264.608 429.993 264.362C430.032 263.802 429.912 263.233 429.793 262.665ZM449 307C448.066 306.281 447.533 305.871 447 305.46C448.387 304.489 448.556 305.203 448.8 306.238C448.857 306.48 448.918 306.74 449 307ZM309.04 351.178C308.874 351.343 308.71 351.508 308.511 351.707C308.199 351.534 307.876 351.356 307.552 351.178C307.604 351.126 307.66 351.058 307.715 350.99C307.837 350.842 307.957 350.695 308.042 350.713C308.392 350.791 308.71 351.012 309.04 351.178ZM180.931 421.195C180.323 421.508 179.642 421.682 178.296 422.164L178.296 386.886C178.576 386.551 179.037 386.004 179.603 385.329L179.603 382.493C181.592 380.672 183.589 378.846 185.048 377.511C185.606 375.88 185.902 375.017 186.18 374.206L188.446 374.206C189.017 373.392 189.835 372.226 190.586 371.155C191.662 372.135 192.39 372.799 192.988 373.344C193.411 374.511 192.838 375.132 192.248 375.771C191.971 376.071 191.69 376.376 191.507 376.743L191.507 399.508C190.64 400.074 189.404 400.881 188.005 401.795C188.823 403.062 189.322 403.833 190.016 404.907L190.016 408.971C188.455 410.09 188.754 412.403 187.184 413.72C186.856 413.995 186.937 414.757 187.024 415.573C187.066 415.964 187.109 416.367 187.109 416.735C186.254 417.032 185.393 417.332 184.421 417.67C184.285 418.286 184.135 418.96 183.934 419.875C183.373 419.987 182.668 420.037 182.041 420.284C181.618 420.451 181.349 420.981 180.931 421.195ZM303.649 374.365C303.716 374.31 303.784 374.255 303.835 374.203C304.001 374.533 304.223 374.851 304.301 375.2C304.319 375.284 304.17 375.405 304.022 375.526C303.955 375.582 303.887 375.637 303.835 375.688C303.671 375.358 303.448 375.042 303.37 374.692C303.352 374.608 303.5 374.487 303.649 374.365ZM543.46 396C543.871 395.466 544.282 394.933 545 394C544.74 394.082 544.481 394.143 544.239 394.2C543.203 394.445 542.489 394.613 543.46 396ZM115 419C115.719 418.067 116.13 417.533 116.54 417C117.512 418.387 116.798 418.555 115.762 418.8C115.52 418.857 115.26 418.918 115 419ZM467.078 432.044L461.902 432.044C462.495 433.286 463.088 434.528 463.944 436.319C464.891 437.266 466.299 438.666 467.682 440.088C467.717 440.124 467.656 440.251 467.572 440.427C467.525 440.526 467.471 440.641 467.422 440.764C466.331 440.878 465.158 441.002 464.563 441.064C462.923 442.444 461.629 443.532 460.578 444.415C461.361 445.938 461.921 447.217 462.65 448.388C462.897 448.785 463.263 449.107 463.629 449.428C464.356 450.067 465.082 450.705 464.879 451.936C466.028 452.657 467.195 453.353 468.317 454.113C468.715 454.383 469.32 454.836 469.293 455.162C469.173 456.631 470.047 457.402 470.919 458.17C471.313 458.517 471.706 458.864 472.007 459.274C473.049 460.695 475.262 460.181 476.166 461.815C477.467 461.597 478.159 462.369 478.851 463.142C479.128 463.451 479.405 463.761 479.722 464.007C479.833 464.394 479.816 464.801 479.798 465.226C479.763 466.058 479.725 466.961 480.637 467.932C483.28 466.856 485.372 468.092 487.557 469.383C488.799 470.116 490.07 470.867 491.489 471.222C491.829 471.932 491.743 472.734 491.655 473.541C491.534 474.661 491.412 475.792 492.425 476.705L495.397 476.705L498.967 480.275C498.505 481.125 498.074 481.938 497.623 482.74C497.189 483.512 496.736 484.274 496.315 485C496.725 485.509 497.126 486.005 497.327 486.254C496.344 488.157 494.859 489.781 494.818 491.442C494.769 493.335 493.431 494.436 493.175 496.033C492.873 497.911 490.877 498.458 490.201 499.969C490.115 500.391 490.158 500.834 490.2 501.268C490.276 502.048 490.348 502.795 489.656 503.327C488.797 503.504 488.119 503.644 487.459 503.78C487.599 505.318 487.012 506.623 486.447 507.878C485.865 509.173 485.305 510.416 485.592 511.808C482.568 514.832 479.761 517.638 476.693 520.707C477.379 522.204 476.666 523.384 475.927 524.608C475.47 525.365 475.003 526.139 474.852 527.015C473.993 527.308 473.134 527.599 472.217 527.912C472.844 528.589 473.341 529.126 473.814 529.637C473.777 530.17 473.744 530.652 473.7 531.285C472.893 531.572 472.031 531.879 471.169 532.187C470.869 533.05 470.57 533.915 470.248 534.844C469.592 534.258 469.069 533.79 468.541 533.318C467.691 534.137 467.745 535.125 467.802 536.176C467.857 537.179 467.915 538.239 467.192 539.263C466.192 539.848 464.79 540.667 463.378 541.493L463.378 544.676C461.254 545.281 462.068 548.005 460.241 549.148C458.585 550.181 458.502 552.384 457.445 553.892C457.366 554.674 457.406 555.462 457.446 556.237C457.504 557.383 457.562 558.5 457.226 559.526C456.702 560.049 456.352 560.4 456.001 560.751C455.895 561.803 455.929 562.866 455.961 563.875C455.995 564.935 456.027 565.931 455.893 566.79C455.136 567.585 454.796 567.941 454.477 568.276L454.477 577.196C455.897 578.616 457.3 580.02 458.452 581.172C459.451 583.306 460.308 585.138 461.152 586.942L465.679 586.942C465.909 587.484 466.516 588.905 466.871 589.737C468.57 589.845 469.514 589.905 470.241 589.951C471.328 591.056 472.197 591.938 473.057 592.813L474.559 592.813C477.019 595.274 479.475 597.729 481.935 600.189C482.417 600.211 482.904 600.233 484.111 600.287C485.16 601.588 486.547 603.306 487.769 604.818L492.466 604.818C494.103 605.906 494.45 607.618 495.247 609.037C495.93 609.183 496.607 609.327 497.14 609.442C499.369 611.671 501.474 613.775 503.579 615.881L503.579 618.863C504.629 619.911 505.777 620.886 506.71 622.035C507.741 623.304 509.396 623.95 509.683 626.043C509.847 627.235 511.518 628.219 512.511 629.296C512.082 630.305 512.704 630.947 513.322 631.584C513.927 632.208 514.527 632.827 514.128 633.783C515.511 635.516 517.369 636.786 518.65 638.608L518.65 650.304C519.186 650.84 519.537 651.191 519.953 651.607C519.953 651.931 519.956 652.261 519.959 652.595L519.959 652.601C519.967 653.464 519.976 654.35 519.932 655.234C519.91 655.674 519.647 656.101 519.462 656.626C519.162 656.899 518.796 657.23 518.453 657.541L518.453 664.824C517.801 665.711 517.254 666.455 516.73 667.169C517.354 668.188 517.809 668.93 518.283 669.702C517.086 670.435 517.087 671.6 516.898 672.85C516.699 674.164 515.884 675.384 515.344 676.631C515.933 677.287 516.417 677.828 516.908 678.375C516.448 678.883 515.968 679.413 515.47 679.962L515.47 687.309C514.942 687.89 514.453 688.429 513.936 688.998L513.936 693.271C513.375 693.931 512.912 694.479 512.403 695.077L512.403 700.328C511.263 702.488 510.401 704.122 509.534 705.765L509.534 709.548C509.082 710.048 508.595 710.586 508.066 711.172L508.066 714.045C507.549 714.606 507.052 715.144 506.533 715.708L506.533 718.57C506.002 719.161 505.515 719.701 505 720.275L505 724.674C502.449 725.8 504.726 729.148 502.3 730.291L501.963 736.137C500.442 738.715 499.773 741.141 497.595 742.366L497.595 748.343C497.06 748.944 496.577 749.485 496.063 750.062L496.063 754.303C495.493 754.986 495.035 755.535 494.648 755.998C494.648 756.588 494.619 757.171 494.59 757.743C494.525 758.998 494.464 760.204 494.723 761.336C494.966 762.402 494.411 763.183 493.868 763.948C493.284 764.77 492.713 765.573 493.16 766.69C492.219 768.562 491.464 770.492 491.379 772.474L490.192 773.661L490.192 778.088C489.679 778.639 489.179 779.175 488.659 779.732L488.659 782.108C487.263 784.82 486.315 787.226 484.872 789.283C484.412 789.939 484.366 790.737 484.32 791.523C484.253 792.671 484.187 793.794 482.837 794.413C482.746 795.587 482.655 796.762 482.587 797.638C481.96 798.267 481.609 798.617 481.257 798.969C481.255 801.448 481.255 803.928 481.255 806.892C480.366 807.592 479.209 808.504 478.189 809.308L478.189 813.946L475.471 816.664C476.998 818.653 477.308 821.461 480.137 822.869C478.851 823.328 477.989 823.634 477.128 823.941C476.953 824.613 476.777 825.284 476.578 826.041C474.693 827.902 472.754 829.818 470.821 831.727C471.207 832.799 470.633 833.402 470.034 834.03C469.761 834.316 469.483 834.608 469.289 834.951L469.289 837.661C468.735 838.306 468.266 838.852 467.757 839.445L467.757 843.273C467.477 843.766 467.192 844.237 466.914 844.695C465.669 846.749 464.584 848.54 464.913 850.861C464.956 851.168 465.467 851.41 465.724 851.647C466.251 851.224 466.746 850.827 467.506 850.218C467.685 851.222 467.807 851.899 467.914 852.503C467.122 853.297 466.42 853.999 465.783 854.635C465.029 854.793 464.351 854.935 463.718 855.067C463.434 856.581 463.178 857.944 462.932 859.259L461.352 859.259C459.482 861.053 457.708 862.755 455.934 864.458C456.026 864.552 456.121 864.643 456.215 864.735C457.043 865.535 457.876 866.342 456.806 868.636C456.503 868.831 455.259 869.629 454.46 870.143L454.46 871.617C454.46 871.771 454.475 871.933 454.49 872.094C454.523 872.451 454.556 872.808 454.426 873.09C454.039 873.927 453.093 874.654 453.041 875.47C452.971 876.568 452.199 877.241 451.436 877.907C450.539 878.69 449.653 879.462 449.935 880.905C448.005 882.834 446.076 884.763 444.67 886.17C443.822 887.819 443.296 888.841 442.56 890.274L442.56 893.014C441.294 896.493 440.032 898.765 438.086 900.262C438.086 900.533 438.1 900.774 438.113 900.992C438.139 901.409 438.159 901.741 438.062 902.035C437.632 903.339 437.329 904.781 436.544 905.852C435.253 907.613 433.623 909.125 432.272 910.594C432.137 911.461 431.751 912.231 431.368 912.993C430.761 914.201 430.164 915.389 430.604 916.911L423.475 923.899C423.194 924.486 423.216 925.076 423.237 925.632C423.266 926.382 423.292 927.071 422.57 927.61C421.348 928.521 421.973 930.484 420.47 931.208C418.744 932.042 418.777 933.999 417.916 935.377C416.189 938.143 415.393 941.48 412.589 943.583C411.016 944.764 410.83 946.827 409.821 948.383C409.321 949.152 408.991 950.031 408.343 951.353L408.343 955.875C406.994 956.98 405.286 958.378 403.85 959.553C403.85 959.978 403.858 960.345 403.866 960.674C403.881 961.304 403.892 961.794 403.835 962.276C403.775 962.778 403.427 963.149 403.079 963.522C402.606 964.029 402.129 964.538 402.362 965.382C400.889 967.012 399.415 968.641 397.884 970.333C398.131 971.721 397.266 972.446 396.39 973.18C395.782 973.69 395.168 974.205 394.919 974.949C395.266 976.82 394.369 978.255 393.481 979.676C393.129 980.24 392.777 980.802 392.506 981.388C391.823 982.862 391.836 984.076 392.521 986C393.889 984.462 395.33 983.362 396.407 981.871C396.433 977.577 396.433 977.577 397.091 976.92C397.573 976.898 398.06 976.876 398.559 976.854C399.85 975.78 399.478 973.359 401.225 972.873C404.028 972.091 405.454 969.777 407.433 968.071C408.11 967.927 408.787 967.782 409.397 967.653C409.794 966.695 409.955 965.673 410.539 965.041C411.535 963.964 411.098 962.117 412.604 961.416C414.371 960.591 413.926 958.432 415.187 957.242C415.796 956.668 415.695 955.286 416.324 954.8C419.485 952.367 420.742 948.728 422.624 945.473C423.318 944.271 423.43 942.853 424.637 941.79C425.812 940.756 426.662 939.203 427.272 937.719C427.82 936.381 428.255 935.098 429.423 934.133C430.374 933.347 431.191 932.398 432.069 931.521C431.808 930.093 432.727 929.272 433.647 928.451C434.565 927.631 435.484 926.812 435.226 925.387C437.155 923.458 439.085 921.528 440.909 919.703C441.074 918.901 441.214 918.223 441.338 917.618L445.548 916.837L445.548 911.922C446.454 911.266 447.337 910.205 448.401 909.972C449.529 909.726 450.382 909.095 450.674 908.357C452.275 904.303 455.96 902.094 458.628 898.998C459.249 898.276 460.258 897.551 460.335 896.755C460.609 893.878 463.371 894.102 464.856 892.777C464.694 892.581 464.508 892.396 464.321 892.212C463.652 891.551 462.983 890.891 463.462 889.704C464.158 889.008 464.86 888.306 465.592 887.575L468.494 887.575C469.223 886.367 469.856 885.133 470.666 884.03C471.365 883.078 472.146 882.368 472.469 881.022C472.768 879.78 474.309 878.834 475.338 877.72L475.338 874.671C476.193 874.369 477.055 874.064 478.126 873.686C478.212 872.102 478.303 870.433 478.357 869.417C479.268 867.661 479.895 866.452 480.51 865.266C481.042 865.733 481.558 866.184 482.063 866.628C482.593 866.102 483.094 865.604 483.261 865.438C484.46 863.313 485.011 862.339 485.553 861.377C485.167 860.919 484.74 860.412 484.321 859.913C485.114 859.121 485.976 858.52 486.487 857.699C488.317 854.771 489.337 851.412 491.238 848.508C491.48 848.137 491.612 847.648 491.653 847.201C491.702 846.686 491.691 846.165 491.68 845.68C491.676 845.487 491.672 845.299 491.672 845.12C493.181 843.611 494.585 842.208 495.986 840.803C496.137 840.126 496.287 839.45 496.428 838.82C497.377 838.487 498.24 838.184 499.084 837.889L499.084 836.299C499.608 835.734 500.105 835.196 500.617 834.642L500.617 828.899C500.996 828.337 501.482 827.871 501.959 827.412C502.914 826.495 503.834 825.611 503.789 824.072C505.057 823.515 505.025 822.402 504.994 821.353C504.97 820.52 504.947 819.726 505.578 819.284C506.623 819.004 507.29 818.825 507.888 818.665C508.02 817.29 508.133 816.116 508.228 815.128C509.408 814.162 510.15 814.706 510.873 815.235C511.246 815.508 511.613 815.777 512.032 815.834C512.592 815.239 512.576 814.557 512.558 813.739C512.544 813.119 512.528 812.421 512.758 811.624C513.419 811.135 514.603 810.258 515.599 809.521L515.599 806.308C516.586 805.319 517.463 804.442 517.886 804.02C518.676 802.447 519.193 801.421 519.936 799.944L519.936 794.4C521.285 793.091 522.587 791.553 524.16 790.379C525.815 789.143 525.631 786.83 527.284 785.689C526.952 784.695 527.491 784.082 528.038 783.46C528.446 782.995 528.858 782.526 528.915 781.89C529.087 779.979 530.893 779.187 532.063 778.02C532.989 777.098 532.979 775.749 533.668 774.972C535.579 772.813 535.59 769.642 537.811 767.718L537.811 760.31C538.325 759.76 538.824 759.224 539.344 758.667L539.344 752.789C539.734 752.398 540.085 752.047 540.698 751.432L540.698 743.992C541.838 742.852 542.715 741.975 543.855 740.834L543.855 733.391C544.469 732.778 544.819 732.427 545.433 731.813L545.433 727.34C546.044 726.734 546.397 726.384 546.746 726.037L546.746 721.596C547.261 721.045 547.76 720.509 548.28 719.95L548.28 712.592L549.641 711.232L549.641 703.788C550.254 703.176 550.604 702.824 551.218 702.211L551.218 689.012C551.963 688.034 552.389 687.474 552.813 686.918C551.647 684.539 550.539 682.279 549.486 680.128C550.086 679.527 550.507 679.221 550.767 678.812C551.005 678.437 551.071 677.95 551.221 677.489L551.104 677.307C550.127 675.78 549.155 674.262 549.567 673.174C550.537 671.557 551.01 670.768 551.403 670.113C550.764 669.124 550.319 668.435 549.907 667.798C550.446 667.259 550.796 666.908 551.323 666.381C551.066 665.492 551.135 664.549 551.206 663.594C551.292 662.434 551.378 661.256 550.885 660.132C550.42 659.711 550.054 659.38 549.712 659.071L549.712 645.677C549.189 645.108 548.696 644.57 548.178 644.004L548.178 638.226C547.622 637.577 547.155 637.032 546.645 636.438L546.645 630.667L542.307 626.329L542.307 624.916C541.786 624.35 541.289 623.811 540.774 623.254L540.774 620.37L539.241 618.681L539.241 615.819C535.846 612.423 532.513 609.091 529.18 605.758C528.355 603.641 527.945 603.158 525.658 601.671C524.962 602.108 524.223 602.573 523.479 603.041C522.803 602.396 522.864 601.635 522.928 600.836C522.966 600.365 523.005 599.881 522.894 599.399C521.755 598.8 521.216 597.443 519.46 597.11C518.055 596.844 516.927 595.115 515.801 594.142C515.032 594.48 514.593 594.629 514.197 594.856C513.603 595.197 513.04 595.591 512.575 595.891C512.094 595.682 511.648 595.429 511.215 595.183C510.106 594.553 509.079 593.969 507.756 594.297C506.352 592.727 504.375 592.83 502.242 592.471C501.524 591.222 500.714 589.811 499.886 588.369L498.467 588.369C497.38 587.337 496.317 586.329 495.235 585.302L492.122 585.302C492.004 584.78 491.594 584.458 491.18 584.134C490.638 583.71 490.091 583.281 490.191 582.391C490.332 581.132 489.275 580.396 488.578 580.146C485.434 579.02 483.62 576.376 481.324 574.273C481.32 574.072 481.321 573.869 481.321 573.666C481.325 572.174 481.328 570.677 479.764 569.718C480.267 568.759 479.655 568.139 479.04 567.517C478.392 566.86 477.741 566.201 478.397 565.137C479.356 564.657 480.345 564.163 481.163 563.754C481.629 562.439 480.741 561.884 480.229 561.564C480.05 561.452 479.917 561.369 479.904 561.292L479.904 555.117C481.46 552.681 481.966 550.127 484.242 549.023L484.242 547.365C485.27 546.843 486.292 546.317 487.322 545.807C487.669 545.635 487.915 545.298 488.163 544.959C488.575 544.395 488.99 543.825 489.882 544.003C490.226 544.969 490.217 545.956 490.208 546.976C490.193 548.507 490.178 550.113 491.353 551.84C492.239 550.354 492.961 549.141 493.61 548.051C494.609 548.811 495.085 549.171 495.534 549.514C496.704 548.232 496.045 547.477 495.466 546.812C495.21 546.518 494.969 546.242 494.908 545.946C495.628 545.076 496.254 544.317 496.814 543.641L499.364 543.641C501.077 542.76 502.31 542.126 503.155 541.691C504.083 539.729 504.866 538.071 505.775 536.147L514.838 536.147C517.907 533.078 520.71 530.268 523.532 527.477C523.672 527.338 523.974 527.363 524.728 527.193C526.517 527.905 527.354 529.817 528.35 532.193C529.35 530.872 530.24 529.696 530.537 529.305C531.953 528.804 533.219 528.836 534.357 528.865C535.604 528.896 536.697 528.923 537.666 528.242C537.844 527.369 537.982 526.69 538.117 526.026C539.495 525.872 540.668 525.741 542.133 525.577C542.73 522.76 546.001 523.242 547.545 521.357C549.773 521.601 551.511 520.583 553.27 519.553C553.731 519.284 554.193 519.013 554.665 518.764C555.41 518.371 556.444 518.482 557.423 518.588C557.662 518.613 557.897 518.639 558.123 518.656C558.33 518.673 558.479 519.446 558.654 519.869C560.52 519.523 561.831 517.996 562.419 516.665C563.759 513.641 566.228 511.75 568.317 509.456L572.016 509.456C572.569 508.669 573.421 507.457 573.878 506.805C575.192 506.379 575.845 506.167 576.443 505.974C576.474 505.311 576.498 504.826 576.521 504.3C576.998 503.791 577.498 503.257 578 502.721L578 500.163C576.91 498.25 575.992 496.64 574.946 494.804L574.946 486.681C573.553 485.102 572.415 483.812 571.347 482.601L568.246 482.601C567.604 481.349 566.965 480.103 566.11 478.438L566.11 472.923L566.185 472.86C567.032 472.15 567.982 471.353 567.095 468.747C566.844 468.592 565.575 467.806 564.972 467.432C564.005 465.521 564.769 464.352 565.424 463.351C565.776 462.811 566.097 462.321 566.099 461.789C564.816 459.218 563.69 456.96 562.491 454.557C561.498 454.449 560.328 454.321 559.157 454.193C557.898 453.649 557.661 451.776 556.093 451.724C555.664 452.152 555.315 452.502 555.017 452.8C552.736 450.572 550.454 448.343 548.448 446.384C548.165 445.359 547.981 444.696 547.816 444.099C546.444 443.975 545.274 443.87 544.196 443.774C543.823 442.7 543.523 441.839 543.233 441.001L541.632 441.001C540.55 439.971 539.491 438.964 538.536 438.055L535.54 438.055C534.602 438.81 534.156 439.168 533.672 439.232C533.235 439.29 532.766 439.108 531.873 438.762L531.873 437.328C529.539 435.23 526.147 435.528 523.428 433.574L519.385 433.574C517.369 431.851 514.521 431.415 513.356 429.146L511.758 429.146C510.179 429.48 509.323 430.264 508.588 430.935C507.826 431.631 507.196 432.207 506.028 432.035C504.818 430.995 503.569 429.92 502.499 429C499.632 429.512 499.319 431.892 498.123 433.604C497.416 433.503 496.757 433.157 496.093 432.809C494.89 432.179 493.672 431.541 492.128 432.331C490.797 433.662 489.406 435.071 487.984 436.447C487.902 436.525 487.745 436.525 487.464 436.524L487.464 436.524C487.288 436.524 487.064 436.523 486.78 436.542C485.839 435.746 484.602 434.698 483.364 433.653L480.616 436.402C480.132 436.009 479.634 435.605 479.005 435.094L473.279 435.094C472.707 434.586 472.167 434.106 471.56 433.567L468.707 433.567C468.156 433.052 467.623 432.552 467.078 432.044ZM176.699 458.107L176.699 430.775C178.134 430.708 179.089 430.663 180.616 430.591C181.362 431.731 182.31 433.176 183.258 434.622C183.534 434.435 183.81 434.248 184.086 434.059L184.086 438.775L185.508 440.195L185.508 455.103C185.244 455.422 184.79 455.97 184.217 456.664L184.217 459.573C184.563 459.966 185.038 460.507 185.581 461.124L185.581 465.442C186.097 465.993 186.595 466.526 187.108 467.075L187.108 469.982C186.619 470.516 186.143 471.036 185.669 471.553C186.053 471.935 186.402 472.284 186.93 472.812L186.93 477.377C186.67 477.755 186.147 478.517 185.424 479.569C185.823 480.231 186.295 481.016 186.813 481.878C186.455 482.449 185.992 483.186 185.363 484.19C185.902 484.92 186.451 485.662 187.098 486.536L187.098 507.074C187.603 507.619 188.099 508.155 188.591 508.686C188.958 509.706 188.422 510.292 187.811 510.96C187.503 511.297 187.175 511.655 186.935 512.101C187.253 512.732 187.663 513.548 188.435 515.081L188.435 531.086L187.239 532.281L187.239 538.302C187.474 538.591 187.923 539.14 188.383 539.705C187.943 540.392 187.472 541.127 186.835 542.122C187.394 542.869 187.947 543.608 188.59 544.466L188.59 551.683C188.109 552.208 187.63 552.729 187.151 553.25C187.523 553.622 187.872 553.972 188.253 554.351C188.819 555.71 188.674 557.125 188.532 558.504C188.507 558.748 188.482 558.991 188.461 559.232C187.743 559.977 187.06 560.683 186.377 561.391C185.653 560.668 184.954 559.969 184.194 559.21L184.194 551.901C183.684 551.338 183.198 550.801 182.67 550.217L182.67 538.451C182.157 537.901 181.659 537.367 181.162 536.833C181.159 532.387 181.159 527.941 181.159 523.494C180.808 523.145 180.457 522.795 180.107 522.446C179.963 522.259 179.692 522.073 179.691 521.884C179.673 517.208 179.673 512.532 179.674 507.898L179.674 507.891L179.674 505.672L178.559 504.558C178.435 504.362 178.204 504.167 178.203 503.971C178.185 499.871 178.186 495.77 178.187 491.745L178.187 491.726C178.187 490.924 178.187 490.125 178.187 489.33C177.707 488.852 177.358 488.502 176.854 487.999L176.854 483.433C177.036 483.202 177.472 482.647 178.058 481.904C178.716 480.603 178.117 479.46 177.497 478.275C176.898 477.129 176.277 475.944 176.755 474.541C177.138 474.112 177.619 473.573 178.155 472.971L178.155 459.661C177.71 459.186 177.211 458.653 176.699 458.107ZM511.766 509.449C511.588 509.125 511.409 508.803 511.237 508.49L511.766 507.961C511.931 508.292 512.154 508.61 512.232 508.959C512.251 509.043 512.102 509.165 511.953 509.287C511.886 509.342 511.818 509.397 511.766 509.449ZM478.676 581.094C480.05 581.767 481.388 582.422 482.121 582.781C482.976 584.292 483.527 585.27 484.152 586.375C483.535 586.566 482.878 586.769 482.577 586.862C480.907 585.419 479.454 584.163 478.167 583.05C478.39 582.189 478.507 581.741 478.676 581.094ZM492.513 595.699C490.692 593.878 488.971 592.158 486.966 590.151C487.867 588.654 487.867 588.654 488.942 588.396C491.249 590.704 493.475 592.93 495.631 595.087L495.628 595.088C494.449 595.794 494.447 595.795 492.513 595.699ZM499.859 597.275C500.037 597.598 500.215 597.922 500.388 598.233L499.858 598.763C499.693 598.432 499.471 598.114 499.393 597.763C499.374 597.679 499.524 597.558 499.672 597.436C499.74 597.381 499.807 597.326 499.859 597.275Z" id="Combined-Shape" fill="#E6EF61" fill-rule="evenodd" stroke="none" />
</svg>