<?xml version="1.0" encoding="utf-8"?>
<svg width="209px" height="145px" viewBox="0 0 209 145" version="1.1" xmlns:xlink="http://www.w3.org/1999/xlink" xmlns="http://www.w3.org/2000/svg">
  <defs>
    <path d="M1920 0L1920 0L1920 5613L0 5613L0 0L1920 0Z" id="path_1" />
    <rect width="209" height="145" id="slice_1" />
    <clipPath id="clip_1">
      <use xlink:href="#slice_1" clip-rule="evenodd" />
    </clipPath>
    <clipPath id="clip_2">
      <use xlink:href="#path_1" clip-rule="evenodd" fill-rule="evenodd" />
    </clipPath>
  </defs>
  <g id="Slice" clip-path="url(#clip_1)">
    <use xlink:href="#slice_1" stroke="none" fill="none" />
    <g id="web">
      <path d="M1920 0L1920 0L1920 5613L0 5613L0 0L1920 0Z" id="web" fill="#000000" fill-opacity="0" stroke="none" transform="translate(-848 -5153)" />
      <path d="M894.257 5236.96C894.49 5236.73 897.394 5235.7 900.647 5234.43C942.24 5218.8 967.567 5200.86 973.957 5182.58C974.538 5180.63 974.654 5179.59 974.654 5176.26C974.654 5172.23 974.654 5172.12 973.492 5169.93C970.471 5163.72 963.152 5160.04 952.115 5159.24C945.144 5158.66 935.85 5159.47 927.717 5161.42L925.161 5162.11L925.277 5160.39C925.742 5156.71 923.883 5155.56 921.443 5157.86C920.746 5158.43 919.468 5160.16 918.539 5161.65L916.796 5164.41L912.846 5165.91C907.269 5168.09 898.091 5172.69 893.095 5175.8C887.054 5179.48 882.639 5182.81 878.341 5186.95C874.042 5191.09 871.951 5193.73 870.324 5197.07C869.278 5199.25 869.162 5199.6 869.278 5201.9C869.395 5204.08 869.511 5204.54 870.44 5205.69C872.764 5208.56 877.295 5209.71 879.851 5208.1C882.639 5206.27 881.71 5204.31 877.643 5203.28C873.112 5202.13 872.531 5201.55 873.577 5198.79C876.017 5192.24 885.892 5183.5 898.904 5176.26C902.157 5174.53 909.709 5170.97 913.078 5169.7L914.589 5169.13L914.008 5170.39C910.174 5179.25 906.34 5189.71 897.975 5214.54L890.888 5235.47L884.266 5237.65C874.274 5240.87 869.162 5242.37 859.171 5244.9L849.993 5247.2L849.993 5248.35C849.993 5249.5 849.993 5249.5 851.503 5249.5C852.316 5249.5 854.988 5249.15 857.428 5248.92C862.656 5248.23 877.76 5247.89 883.336 5248.23L886.938 5248.58L876.819 5280.13C875.193 5285.18 873.682 5290.24 873.566 5291.39C873.45 5293.12 873.566 5293.46 874.263 5294.15C875.425 5295.3 876.936 5295.3 878.097 5293.92C879.259 5292.54 879.84 5290.59 880.886 5284.49C881.931 5278.63 890.307 5249.27 890.772 5248.92C891.004 5248.58 901.577 5249.84 908.547 5250.88C923.418 5253.29 940.032 5257.31 947.119 5260.3C950.488 5261.68 953.277 5263.41 953.277 5264.1C953.277 5265.13 954.439 5266.51 955.484 5266.97C956.53 5267.43 956.762 5267.43 957.808 5266.97C959.318 5266.4 960.131 5265.13 960.364 5263.29C960.48 5261.8 959.667 5260.19 958.04 5259.04C956.878 5258.23 945.957 5255.48 933.178 5253.06C917.261 5249.84 906.34 5248.12 895.884 5247.2L891.004 5246.74L891.237 5245.93C892.515 5240.64 893.56 5237.08 894.025 5236.85L894.257 5236.96ZM920.282 5163.15C920.282 5162.93 922.103 5160.42 922.44 5160.08C922.649 5160.36 922.229 5162.15 921.908 5162.57C921.56 5163.03 920.282 5163.49 920.282 5163.15ZM1029.04 5216.16C1028.86 5216.12 1028.65 5216.2 1028.34 5216.39C1026.64 5217.52 1014.9 5222.39 1013.66 5222.62C1013.62 5222.62 1013.58 5222.62 1013.54 5222.63C1012.97 5222.66 1012.59 5222.69 1012.41 5222.51C1012.06 5222.18 1012.39 5221.14 1013.34 5218.15L1013.44 5217.86C1014.45 5214.47 1014.56 5214.01 1014.23 5213.11C1013.44 5211.41 1012.42 5211.75 1009.94 5214.35C1007.23 5217.07 1001.81 5224.43 998.535 5229.41C997.293 5231.34 996.164 5232.92 996.051 5232.81C995.958 5232.72 996.553 5230.48 997.332 5227.54C997.5 5226.91 997.677 5226.25 997.857 5225.56C1004.63 5201.9 1010.27 5185.48 1018.29 5165.89C1019.42 5163.28 1019.42 5162.72 1019.08 5161.92C1018.85 5161.36 1018.51 5161.13 1017.84 5161.24C1017.05 5161.36 1016.71 5161.7 1015.58 5164.64C1014 5168.72 1009.82 5176.87 1007.45 5180.83C1005.65 5183.78 1005.42 5185.36 1006.32 5186.27C1006.78 5186.5 1007.23 5186.83 1007.34 5186.83C1007.68 5186.95 1007.11 5188.65 1005.87 5191.82C1001.68 5202.94 997.829 5214.44 995.234 5223.38C994.802 5223.37 993.19 5224.01 991.342 5224.73C991.033 5224.85 990.718 5224.98 990.4 5225.1C984.102 5227.84 975.355 5231.25 973.022 5231.94C966.724 5233.42 965.208 5231.03 969.523 5226.13C971.389 5224.19 973.722 5222.71 975.238 5222.71C976.871 5222.71 978.154 5221.34 977.804 5219.75C977.454 5217.36 975.472 5216.44 972.789 5217.47C971.774 5217.93 970.17 5219.31 968.729 5220.88C968.465 5220.79 967.592 5220.8 966.016 5221.23C960.086 5223.03 952.288 5223.93 947.017 5223.48C943.832 5223.37 943.502 5223.26 943.392 5222.58C943.283 5222.13 942.843 5221.46 942.404 5221.12C941.745 5220.45 941.416 5220.34 940.317 5220.45C939.549 5220.56 938.45 5220.9 937.901 5221.23C937.352 5221.68 936.474 5222.13 935.815 5222.25C934.277 5222.81 932.63 5224.72 931.092 5227.98C929.445 5231.46 928.456 5235.17 928.347 5238.31C928.237 5241.12 928.896 5242.69 930.323 5243.26C932.19 5244.15 933.728 5243.37 936.474 5240.22C938.78 5237.75 942.074 5231.68 943.063 5228.2L943.502 5226.4L947.017 5226.18C954.924 5225.73 961.403 5224.83 966.126 5223.26C966.456 5223.15 966.757 5223.04 967.029 5222.94C966.684 5223.41 966.382 5223.87 966.141 5224.31C964.392 5227.15 963.808 5229.43 964.275 5230.91C964.742 5232.39 966.141 5233.76 967.657 5234.22C970.34 5235.01 974.072 5233.87 985.968 5228.98C990.336 5227.18 994.137 5225.72 994.582 5225.67C992.887 5231.74 991.875 5236.36 991.875 5238.47C991.875 5240.74 991.988 5241.08 992.778 5241.64C994.471 5243 995.374 5242.55 996.277 5239.94C997.293 5237.11 998.986 5233.83 1002.26 5228.85C1005.65 5223.52 1010.16 5217.52 1010.39 5217.75C1010.5 5217.86 1010.39 5218.54 1010.27 5219.22C1009.15 5223.07 1010.61 5225.45 1013.55 5224.88C1014.4 5224.67 1023.63 5220.75 1027.07 5219.06C1026.15 5220.96 1025.68 5223.12 1025.99 5224.92C1026.35 5226.2 1027.76 5228.05 1028.83 5228.52C1030.83 5229.21 1034.26 5228.4 1038.27 5226.2C1039.57 5225.5 1043.11 5223.41 1046.18 5221.55C1049.37 5219.7 1052.56 5217.73 1053.38 5217.26C1055.04 5216.33 1055.15 5216.22 1054.56 5215.29L1054.8 5215.17C1054.56 5214.71 1053.97 5214.83 1050.9 5216.33C1049.02 5217.26 1044.77 5219.47 1041.7 5221.32C1034.26 5225.5 1030.01 5226.89 1029.3 5225.04C1029.18 5224.69 1029.3 5224.57 1029.89 5224.57C1031.9 5224.57 1034.85 5221.32 1035.67 5218.42C1036.03 5217.03 1036.03 5216.68 1035.56 5215.99C1034.61 5214.59 1033.43 5214.01 1032.02 5214.36C1030.98 5214.54 1029.95 5215.2 1029.04 5216.16ZM894.49 5233.74C894.49 5233.4 895.768 5229.38 897.046 5225.01C904.249 5200.86 911.452 5180.4 915.867 5171.54C917.609 5168.21 917.726 5167.98 919.004 5167.63C919.701 5167.29 920.398 5167.17 920.514 5167.17C920.63 5167.4 917.726 5175.34 915.983 5179.48C912.846 5186.95 907.037 5198.91 905.411 5201.21C904.481 5202.36 904.249 5203.85 904.83 5204.89C905.294 5205.81 907.037 5205.81 907.734 5204.89C908.896 5203.74 920.63 5175.8 922.838 5169.13C923.302 5167.63 923.999 5166.25 924.232 5166.02C924.58 5165.79 926.672 5165.22 928.995 5164.64C944.215 5161.08 958.853 5161.54 966.289 5165.79C968.496 5167.17 971.168 5170.05 971.749 5172.12C972.563 5174.3 972.563 5178.1 971.749 5180.74C967.335 5197.76 941.426 5216.5 901.46 5231.56C898.323 5232.82 895.535 5233.86 895.187 5233.97C894.722 5234.2 894.606 5234.09 894.838 5233.51L894.49 5233.74ZM1031.78 5220.74C1033.2 5219.12 1033.67 5217.84 1033.08 5217.26C1032.25 5216.57 1029.89 5219 1029.3 5221.21C1028.95 5222.71 1030.24 5222.37 1031.78 5220.74ZM938.78 5231.23C937.572 5233.93 936.583 5235.5 935.156 5237.08C933.948 5238.31 932.849 5239.55 932.52 5239.66C931.971 5240 931.861 5239.89 931.861 5239.21C931.861 5237.98 933.618 5232.69 934.936 5229.89C935.595 5228.54 936.583 5226.96 937.242 5226.29C937.791 5225.73 938.34 5224.94 938.34 5224.72C938.34 5224.38 938.56 5224.38 939.109 5224.83C939.549 5225.28 939.988 5225.62 940.317 5225.73C940.976 5225.95 940.866 5226.63 938.78 5231.01L938.78 5231.23ZM888.913 5242.48C887.867 5246.05 887.519 5246.62 887.054 5246.51C882.174 5246.16 878.457 5245.93 873.112 5245.93L866.839 5245.82L878.457 5242.14C884.847 5239.95 890.075 5238.34 890.075 5238.34C890.075 5238.34 889.494 5240.18 888.913 5242.48Z" id="logo-footer" fill="#8E1818" fill-rule="evenodd" stroke="none" clip-path="url(#clip_2)" transform="translate(-848 -5153)" />
    </g>
  </g>
</svg>