<?xml version="1.0" encoding="utf-8"?>
<svg width="292px" height="200px" viewBox="0 0 292 200" version="1.1" xmlns:xlink="http://www.w3.org/1999/xlink" xmlns="http://www.w3.org/2000/svg">
  <defs>
    <path d="M1920 0L1920 0L1920 5613L0 5613L0 0L1920 0Z" id="path_1" />
    <rect width="292" height="200" id="slice_1" />
    <clipPath id="clip_1">
      <use xlink:href="#slice_1" clip-rule="evenodd" />
    </clipPath>
    <clipPath id="clip_2">
      <use xlink:href="#path_1" clip-rule="evenodd" fill-rule="evenodd" />
    </clipPath>
  </defs>
  <g id="Slice" clip-path="url(#clip_1)">
    <use xlink:href="#slice_1" stroke="none" fill="none" />
    <g id="web">
      <path d="M1920 0L1920 0L1920 5613L0 5613L0 0L1920 0Z" id="web" fill="#000000" fill-opacity="0" stroke="none" transform="translate(-804 -289)" />
      <path d="M868.853 404.937C869.177 404.617 873.215 403.179 877.738 401.42C935.57 379.678 970.786 354.738 979.671 329.319C980.479 326.601 980.64 325.163 980.64 320.526C980.64 314.931 980.64 314.771 979.025 311.734C974.825 303.101 964.648 297.985 949.301 296.866C939.609 296.066 926.685 297.186 915.378 299.903L911.824 300.863L911.985 298.465C912.631 293.349 910.047 291.75 906.654 294.947C905.685 295.747 903.908 298.145 902.616 300.223L900.193 304.06L894.7 306.138C886.946 309.176 874.184 315.57 867.238 319.887C858.838 325.003 852.699 329.639 846.722 335.394C840.745 341.149 837.837 344.826 835.576 349.463C834.122 352.5 833.96 352.98 834.122 356.177C834.284 359.215 834.445 359.854 835.737 361.453C838.968 365.45 845.268 367.048 848.822 364.81C852.699 362.252 851.407 359.534 845.753 358.096C839.453 356.497 838.645 355.698 840.099 351.861C843.491 342.748 857.222 330.598 875.315 320.526C879.838 318.128 890.339 313.172 895.023 311.414L897.123 310.615L896.316 312.373C890.985 324.683 885.654 339.231 874.023 373.763L864.169 402.859L854.961 405.896C841.068 410.373 833.96 412.451 820.068 415.968L807.306 419.165L807.306 420.764C807.306 422.363 807.306 422.363 809.406 422.363C810.537 422.363 814.252 421.883 817.645 421.563C824.914 420.604 845.915 420.125 853.669 420.604L858.676 421.084L844.607 464.951C842.346 471.985 840.246 479.019 840.084 480.618C839.922 483.016 840.084 483.496 841.053 484.455C842.669 486.054 844.769 486.054 846.384 484.135C848 482.217 848.807 479.499 850.261 471.026C851.715 462.873 863.361 422.043 864.007 421.563C864.33 421.084 879.031 422.842 888.723 424.281C909.4 427.638 932.501 433.234 942.355 437.391C947.04 439.309 950.917 441.707 950.917 442.666C950.917 444.105 952.532 446.023 953.986 446.663C955.44 447.302 955.763 447.302 957.217 446.663C959.317 445.864 960.448 444.105 960.771 441.547C960.932 439.469 959.802 437.231 957.54 435.632C955.924 434.513 940.74 430.676 922.97 427.319C900.839 422.842 885.654 420.444 871.115 419.165L864.33 418.526L864.653 417.407C866.43 410.053 867.884 405.097 868.53 404.777L868.853 404.937ZM905.039 302.301C905.039 302.003 907.571 298.502 908.041 298.036C908.33 298.425 907.747 300.913 907.3 301.502C906.816 302.141 905.039 302.781 905.039 302.301ZM1056.27 376.009C1056.01 375.95 1055.72 376.067 1055.28 376.331C1052.93 377.905 1036.6 384.676 1034.88 384.99C1034.82 384.994 1034.76 384.998 1034.71 385.001C1033.91 385.052 1033.39 385.086 1033.14 384.842C1032.66 384.383 1033.12 382.94 1034.43 378.783L1034.56 378.378C1035.98 373.654 1036.13 373.024 1035.66 371.765C1034.56 369.403 1033.15 369.875 1029.7 373.497C1025.93 377.275 1018.4 387.51 1013.85 394.438C1012.12 397.114 1010.55 399.319 1010.39 399.161C1010.26 399.032 1011.09 395.92 1012.17 391.841L1012.17 391.84C1012.41 390.96 1012.65 390.035 1012.9 389.084C1022.32 356.177 1030.17 333.346 1041.31 306.107C1042.88 302.486 1042.88 301.699 1042.41 300.597C1042.1 299.809 1041.63 299.494 1040.68 299.652C1039.59 299.809 1039.12 300.282 1037.55 304.375C1035.35 310.044 1029.54 321.38 1026.24 326.891C1023.73 330.985 1023.42 333.189 1024.68 334.449C1025.3 334.764 1025.93 335.236 1026.09 335.236C1026.56 335.393 1025.77 337.755 1024.05 342.164C1018.21 357.623 1012.86 373.615 1009.26 386.055C1008.66 386.038 1006.41 386.92 1003.84 387.931C1003.41 388.1 1002.98 388.272 1002.54 388.445C993.778 392.246 981.615 396.998 978.372 397.949C969.615 400.008 967.506 396.681 973.507 389.87C976.101 387.177 979.345 385.118 981.453 385.118C983.723 385.118 985.507 383.217 985.021 381C984.534 377.673 981.777 376.406 978.047 377.832C976.636 378.475 974.406 380.398 972.403 382.579C972.035 382.443 970.822 382.469 968.63 383.067C960.384 385.566 949.542 386.816 942.212 386.191C937.784 386.035 937.326 385.879 937.173 384.942C937.02 384.317 936.41 383.379 935.799 382.911C934.883 381.974 934.424 381.817 932.897 381.974C931.828 382.13 930.301 382.598 929.538 383.067C928.774 383.692 927.553 384.317 926.637 384.473C924.499 385.254 922.208 387.91 920.07 392.44C917.78 397.283 916.405 402.438 916.253 406.812C916.1 410.717 917.016 412.904 919.001 413.686C921.597 414.935 923.735 413.842 927.553 409.468C930.76 406.031 935.341 397.595 936.715 392.752L937.326 390.253L942.212 389.941C953.207 389.316 962.216 388.066 968.783 385.879C969.241 385.73 969.66 385.583 970.038 385.44C969.559 386.096 969.138 386.737 968.804 387.336C966.371 391.296 965.56 394.464 966.209 396.523C966.858 398.582 968.804 400.483 970.912 401.117C974.642 402.225 979.831 400.641 996.373 393.83C1002.44 391.333 1007.73 389.297 1008.35 389.238C1005.99 397.668 1004.59 404.098 1004.59 407.034C1004.59 410.183 1004.74 410.655 1005.84 411.442C1008.19 413.332 1009.45 412.702 1010.71 409.081C1012.12 405.144 1014.47 400.578 1019.02 393.65C1023.73 386.25 1030.01 377.905 1030.33 378.22C1030.48 378.378 1030.33 379.322 1030.17 380.267L1030.17 380.267C1028.6 385.62 1030.64 388.927 1034.72 388.14C1035.9 387.843 1048.73 382.399 1053.53 380.047C1052.25 382.689 1051.59 385.692 1052.03 388.19C1052.52 389.964 1054.49 392.545 1055.97 393.191C1058.76 394.159 1063.52 393.029 1069.1 389.964C1070.9 388.996 1075.83 386.093 1080.1 383.512C1084.53 380.931 1088.96 378.188 1090.11 377.543C1092.41 376.252 1092.57 376.091 1091.75 374.8L1092.08 374.639C1091.75 373.994 1090.93 374.155 1086.66 376.252C1084.04 377.543 1078.13 380.608 1073.86 383.189C1063.52 388.996 1057.61 390.932 1056.62 388.351C1056.46 387.867 1056.62 387.706 1057.44 387.706C1060.23 387.706 1064.34 383.189 1065.49 379.156C1065.98 377.22 1065.98 376.736 1065.32 375.768C1064.01 373.832 1062.37 373.026 1060.4 373.51C1058.96 373.754 1057.53 374.68 1056.27 376.009ZM869.177 400.461C869.177 399.981 870.953 394.386 872.73 388.311C882.746 354.738 892.762 326.282 898.9 313.972C901.323 309.336 901.485 309.016 903.262 308.536C904.231 308.057 905.2 307.897 905.362 307.897C905.523 308.216 901.485 319.247 899.062 325.003C894.7 335.394 886.623 352.021 884.361 355.218C883.069 356.817 882.746 358.895 883.554 360.334C884.2 361.613 886.623 361.613 887.592 360.334C889.208 358.735 905.523 319.887 908.593 310.615C909.239 308.536 910.208 306.618 910.531 306.298C911.016 305.978 913.924 305.179 917.154 304.38C938.316 299.424 958.671 300.063 969.009 305.978C972.079 307.897 975.794 311.893 976.602 314.771C977.733 317.809 977.733 323.084 976.602 326.761C970.463 350.422 934.439 376.48 878.869 397.423C874.507 399.182 870.63 400.621 870.146 400.781C869.5 401.1 869.338 400.94 869.661 400.141L869.177 400.461ZM1060.07 382.382C1062.04 380.124 1062.7 378.349 1061.88 377.543C1060.73 376.575 1057.44 379.963 1056.62 383.028C1056.13 385.125 1057.94 384.641 1060.07 382.382ZM930.76 396.97C929.08 400.72 927.705 402.907 925.72 405.094C924.041 406.812 922.514 408.53 922.055 408.687C921.292 409.155 921.139 408.999 921.139 408.062C921.139 406.343 923.583 399.001 925.415 395.096C926.331 393.221 927.705 391.034 928.622 390.097C929.385 389.316 930.149 388.222 930.149 387.91C930.149 387.441 930.454 387.441 931.218 388.066C931.828 388.691 932.439 389.159 932.897 389.316C933.814 389.628 933.661 390.565 930.76 396.658L930.76 396.97ZM861.423 412.611C859.969 417.567 859.484 418.366 858.838 418.206C852.053 417.727 846.884 417.407 839.453 417.407L830.73 417.247L846.884 412.131C855.769 409.094 863.038 406.856 863.038 406.856C863.038 406.856 862.23 409.413 861.423 412.611Z" id="logo" fill="#8E1818" fill-rule="evenodd" stroke="none" clip-path="url(#clip_2)" transform="translate(-804 -289)" />
    </g>
  </g>
</svg>